<svg id="visual" viewBox="0 0 675 900" width="675" height="900" xmlns="http://www.w3.org/2000/svg" xmlns:xlink="http://www.w3.org/1999/xlink" version="1.1"><g transform="translate(301.2791509040797 392.0450431774817)"><path d="M218.5 -381.3C255.1 -357.4 237.1 -242 288.8 -163.2C340.5 -84.4 461.7 -42.2 505.3 25.2C548.9 92.5 514.8 185 456.5 252.4C398.3 319.8 315.9 362.1 235.8 427.7C155.7 493.3 77.8 582.1 -4.6 590.1C-87 598 -174 525 -262.8 464.5C-351.5 403.9 -442.1 355.7 -451.7 280.3C-461.4 205 -390.2 102.5 -370.6 11.3C-350.9 -79.8 -382.9 -159.7 -386 -257.1C-389.1 -354.5 -363.3 -469.5 -294.1 -474.6C-225 -479.7 -112.5 -374.9 -10.8 -356.2C91 -337.6 182 -405.2 218.5 -381.3" fill="#4FACF7"></path></g></svg>