<svg id="visual" viewBox="0 0 900 600" width="900" height="600" xmlns="http://www.w3.org/2000/svg" xmlns:xlink="http://www.w3.org/1999/xlink" version="1.1"><rect x="0" y="0" width="900" height="600" fill="#FFFFFF"></rect><g transform="translate(521.6261977785634 325.7377802605506)"><path d="M212.2 -411C249.7 -345.9 237.4 -237.9 231.3 -162.3C225.1 -86.7 225.1 -43.3 242.5 10.1C260 63.5 295 127 307.5 213.6C320 300.2 310 409.9 255 430.7C200 451.4 100 383.2 27.3 336C-45.5 288.8 -91 262.6 -158.3 248.9C-225.5 235.3 -314.5 234.1 -374.8 194.7C-435 155.3 -466.5 77.7 -452.1 8.3C-437.7 -61 -377.3 -122 -326.8 -178.3C-276.3 -234.6 -235.7 -286.2 -182.8 -342.5C-130 -398.8 -65 -459.9 11.2 -479.3C87.3 -498.6 174.7 -476.2 212.2 -411" fill="#6600FF"></path></g></svg>